<svg width="36" height="34" viewBox="0 0 36 34" fill="none" xmlns="http://www.w3.org/2000/svg">
<path d="M17.6731 2.83352C17.4371 2.84126 17.2099 2.92125 17.0246 3.0618L6.53713 10.9936C5.20606 12.0006 4.42725 13.5394 4.42725 15.1663V28.6889C4.42725 29.6549 5.26578 30.4599 6.27195 30.4599H13.6508C14.657 30.4599 15.4955 29.6549 15.4955 28.6889V21.6053C15.4955 21.3963 15.6467 21.2511 15.8644 21.2511H19.5538C19.7716 21.2511 19.9228 21.3963 19.9228 21.6053V28.6889C19.9228 29.6549 20.7613 30.4599 21.7675 30.4599H29.1463C30.1525 30.4599 30.991 29.6549 30.991 28.6889V15.1663C30.991 13.5394 30.2122 12.0006 28.8811 10.9936L18.3937 3.0618C18.189 2.90658 17.9338 2.82574 17.6731 2.83352ZM17.7091 5.24917L27.512 12.6635C28.312 13.2687 28.7774 14.1892 28.7774 15.1663V28.3348H22.1364V21.6053C22.1364 20.2488 20.9669 19.126 19.5538 19.126H15.8644C14.4514 19.126 13.2818 20.2488 13.2818 21.6053V28.3348H6.64089V15.1663C6.64089 14.1892 7.10631 13.2687 7.90625 12.6635L17.7091 5.24917Z" fill="#3F5EE6"/>
</svg>
