<svg width="36" height="34" viewBox="0 0 36 34" fill="none" xmlns="http://www.w3.org/2000/svg">
<path d="M17.709 21.2524C20.1542 21.2524 22.1363 19.3495 22.1363 17.0022C22.1363 14.6548 20.1542 12.752 17.709 12.752C15.2639 12.752 13.2817 14.6548 13.2817 17.0022C13.2817 19.3495 15.2639 21.2524 17.709 21.2524Z" stroke="#3F5EE6" stroke-width="2.1251"/>
<path d="M20.3139 3.04933C19.7723 2.83398 19.0846 2.83398 17.7092 2.83398C16.3338 2.83398 15.6461 2.83398 15.1045 3.04933C14.7461 3.19173 14.4205 3.40053 14.1463 3.6638C13.8721 3.92707 13.6546 4.23964 13.5062 4.58365C13.3705 4.89958 13.3158 5.26935 13.2952 5.8063C13.286 6.19447 13.1742 6.57402 12.9702 6.90932C12.7663 7.24462 12.4769 7.52466 12.1293 7.72314C11.7765 7.91304 11.3791 8.01371 10.9746 8.0157C10.5701 8.01768 10.1717 7.92091 9.81681 7.73447C9.32095 7.48229 8.96234 7.34345 8.60668 7.29812C7.8309 7.20018 7.04635 7.40197 6.4255 7.85914C5.96211 8.20341 5.61678 8.77436 4.92907 9.91766C4.24136 11.061 3.89604 11.6319 3.82077 12.1915C3.77006 12.5605 3.79556 12.9355 3.89584 13.295C3.99611 13.6545 4.16919 13.9916 4.40517 14.2869C4.62359 14.5589 4.92907 14.787 5.40279 15.0732C6.10083 15.4939 6.54946 16.2108 6.54946 17.0013C6.54946 17.7919 6.10083 18.5087 5.40279 18.9281C4.92907 19.2157 4.62211 19.4438 4.40517 19.7158C4.16919 20.0111 3.99611 20.3481 3.89584 20.7077C3.79556 21.0672 3.77006 21.4422 3.82077 21.8112C3.89751 22.3693 4.24136 22.9417 4.9276 24.085C5.61678 25.2283 5.96063 25.7993 6.4255 26.1435C6.7331 26.3701 7.08418 26.5362 7.45869 26.6325C7.8332 26.7288 8.22379 26.7532 8.60816 26.7046C8.96234 26.6592 9.32095 26.5204 9.81681 26.2682C10.1717 26.0818 10.5701 25.985 10.9746 25.987C11.3791 25.989 11.7765 26.0896 12.1293 26.2795C12.8421 26.6762 13.2657 27.4058 13.2952 28.1964C13.3158 28.7347 13.369 29.1031 13.5062 29.419C13.6546 29.763 13.8721 30.0756 14.1463 30.3389C14.4205 30.6021 14.7461 30.8109 15.1045 30.9533C15.6461 31.1687 16.3338 31.1687 17.7092 31.1687C19.0846 31.1687 19.7723 31.1687 20.3139 30.9533C20.6723 30.8109 20.9979 30.6021 21.2721 30.3389C21.5463 30.0756 21.7639 29.763 21.9122 29.419C22.048 29.1031 22.1026 28.7347 22.1232 28.1964C22.1527 27.4058 22.5763 26.6748 23.2891 26.2795C23.6419 26.0896 24.0393 25.989 24.4438 25.987C24.8483 25.985 25.2467 26.0818 25.6016 26.2682C26.0975 26.5204 26.4561 26.6592 26.8103 26.7046C27.1946 26.7532 27.5852 26.7288 27.9597 26.6325C28.3342 26.5362 28.6853 26.3701 28.9929 26.1435C29.4578 25.8007 29.8016 25.2283 30.4893 24.085C31.177 22.9417 31.5224 22.3708 31.5976 21.8112C31.6484 21.4422 31.6228 21.0672 31.5226 20.7077C31.4223 20.3481 31.2492 20.0111 31.0132 19.7158C30.7948 19.4438 30.4893 19.2157 30.0156 18.9295C29.6699 18.7278 29.3833 18.445 29.1827 18.1077C28.9821 17.7704 28.8741 17.3897 28.8689 17.0013C28.8689 16.2108 29.3176 15.4939 30.0156 15.0746C30.4893 14.787 30.7963 14.5589 31.0132 14.2869C31.2492 13.9916 31.4223 13.6545 31.5226 13.295C31.6228 12.9355 31.6484 12.5605 31.5976 12.1915C31.5209 11.6333 31.177 11.061 30.4908 9.91766C29.8016 8.77436 29.4578 8.20341 28.9929 7.85914C28.6853 7.6326 28.3342 7.46644 27.9597 7.37018C27.5852 7.27392 27.1946 7.24943 26.8103 7.29812C26.4561 7.34345 26.0975 7.48229 25.6001 7.73447C25.2454 7.92065 24.8473 8.01729 24.4431 8.0153C24.0388 8.01332 23.6418 7.91279 23.2891 7.72314C22.9415 7.52466 22.6521 7.24462 22.4482 6.90932C22.2442 6.57402 22.1324 6.19447 22.1232 5.8063C22.1026 5.26794 22.0494 4.89958 21.9122 4.58365C21.7639 4.23964 21.5463 3.92707 21.2721 3.6638C20.9979 3.40053 20.6723 3.19173 20.3139 3.04933Z" stroke="#3F5EE6" stroke-width="2.1251"/>
</svg>
