<svg width="36" height="35" viewBox="0 0 36 35" fill="none" xmlns="http://www.w3.org/2000/svg">
<path d="M13.2817 17.2655C13.2817 18.2048 12.893 19.1057 12.2011 19.7699C11.5092 20.4342 10.5707 20.8073 9.59225 20.8073C8.61375 20.8073 7.67534 20.4342 6.98344 19.7699C6.29154 19.1057 5.90283 18.2048 5.90283 17.2655C5.90283 16.3261 6.29154 15.4252 6.98344 14.761C7.67534 14.0968 8.61375 13.7236 9.59225 13.7236C10.5707 13.7236 11.5092 14.0968 12.2011 14.761C12.893 15.4252 13.2817 16.3261 13.2817 17.2655Z" stroke="#3F5EE6" stroke-width="2.1251"/>
<path d="M20.6606 9.47266L13.2817 14.4312M20.6606 25.0567L13.2817 20.0982" stroke="#3F5EE6" stroke-width="2.1251" stroke-linecap="round"/>
<path d="M28.0395 26.4731C28.0395 27.4124 27.6508 28.3133 26.9589 28.9775C26.267 29.6418 25.3286 30.0149 24.3501 30.0149C23.3716 30.0149 22.4331 29.6418 21.7412 28.9775C21.0493 28.3133 20.6606 27.4124 20.6606 26.4731C20.6606 25.5337 21.0493 24.6328 21.7412 23.9686C22.4331 23.3044 23.3716 22.9312 24.3501 22.9312C25.3286 22.9312 26.267 23.3044 26.9589 23.9686C27.6508 24.6328 28.0395 25.5337 28.0395 26.4731ZM28.0395 8.05551C28.0395 8.99486 27.6508 9.89574 26.9589 10.56C26.267 11.2242 25.3286 11.5973 24.3501 11.5973C23.3716 11.5973 22.4331 11.2242 21.7412 10.56C21.0493 9.89574 20.6606 8.99486 20.6606 8.05551C20.6606 7.11616 21.0493 6.21528 21.7412 5.55105C22.4331 4.88683 23.3716 4.51367 24.3501 4.51367C25.3286 4.51367 26.267 4.88683 26.9589 5.55105C27.6508 6.21528 28.0395 7.11616 28.0395 8.05551Z" stroke="#3F5EE6" stroke-width="2.1251"/>
</svg>
