<svg width="36" height="35" viewBox="0 0 36 35" fill="none" xmlns="http://www.w3.org/2000/svg">
<path d="M29.3646 23.126H11.6554C10.2829 23.126 9.59667 23.126 9.03293 23.2705C8.28223 23.4637 7.59774 23.8433 7.04829 24.371C6.49884 24.8987 6.10378 25.556 5.90283 26.2768" stroke="#3F5EE6" stroke-width="2.1251"/>
<path d="M11.8059 10.3757H23.612M11.8059 15.3342H19.1847M14.7574 31.6267C10.584 31.6267 8.49575 31.6267 7.20003 30.3814C5.90283 29.1375 5.90283 27.1328 5.90283 23.1263V11.7924C5.90283 7.78588 5.90283 5.7812 7.20003 4.5373C8.49575 3.29199 10.584 3.29199 14.7574 3.29199H20.6605C24.834 3.29199 26.9222 3.29199 28.2179 4.5373C29.5151 5.7812 29.5151 7.78588 29.5151 11.7924M20.6605 31.6267C24.834 31.6267 26.9222 31.6267 28.2179 30.3814C29.5151 29.1375 29.5151 27.1328 29.5151 23.1263V17.4593" stroke="#3F5EE6" stroke-width="2.1251" stroke-linecap="round"/>
</svg>
