<svg width="36" height="35" viewBox="0 0 36 35" fill="none" xmlns="http://www.w3.org/2000/svg">
<g clip-path="url(#clip0_136_2925)">
<path d="M17.228 2.64564C17.4497 2.28901 17.9687 2.28901 18.1905 2.64563L22.6162 9.76384C22.9283 10.2657 23.424 10.6259 23.9978 10.7676L32.1353 12.7771C32.543 12.8778 32.7033 13.3714 32.4327 13.6925L27.0305 20.1013C26.6496 20.5532 26.4602 21.136 26.5028 21.7255L27.1063 30.0856C27.1365 30.5045 26.7166 30.8095 26.3276 30.6514L18.5631 27.494C18.0156 27.2714 17.4028 27.2714 16.8554 27.494L9.09087 30.6514C8.70186 30.8095 8.28194 30.5045 8.31217 30.0856L8.91563 21.7255C8.95818 21.136 8.76883 20.5532 8.38792 20.1013L2.98574 13.6925C2.71508 13.3714 2.87548 12.8778 3.28317 12.7771L11.4206 10.7676C11.9944 10.6259 12.4901 10.2657 12.8022 9.76384L17.228 2.64564Z" stroke="#3F5EE6" stroke-width="1.70008" stroke-linejoin="round"/>
</g>
<defs>
<clipPath id="clip0_136_2925">
<rect width="35.4184" height="34.0016" fill="white" transform="translate(0 0.261719)"/>
</clipPath>
</defs>
</svg>
