<svg width="36" height="35" viewBox="0 0 36 35" fill="none" xmlns="http://www.w3.org/2000/svg">
<path fill-rule="evenodd" clip-rule="evenodd" d="M17.7091 3.42578C16.8982 3.42578 16.1059 3.65895 15.4344 4.09524C14.7629 4.53152 14.2429 5.15091 13.9415 5.87354C13.6401 6.59617 13.5711 7.38892 13.7433 8.14956C13.9156 8.9102 14.3213 9.60386 14.908 10.1411L14.6129 10.6455L11.9609 15.2116C11.7915 15.5183 11.6078 15.8175 11.4105 16.1084C11.3832 16.1464 11.3536 16.1828 11.3219 16.2175C11.281 16.1923 11.2415 16.1649 11.2039 16.1353C10.9307 15.9072 10.6683 15.6675 10.4173 15.417L10.2992 15.3051C9.88081 14.8962 9.45172 14.4975 9.01236 14.1094C9.2442 13.5162 9.28662 12.8701 9.13422 12.2536C8.98181 11.6371 8.64149 11.0782 8.15671 10.6483C7.67192 10.2183 7.06467 9.93681 6.41247 9.83969C5.76027 9.74256 5.09271 9.83423 4.49503 10.103C3.89734 10.3717 3.39665 10.8054 3.05686 11.3486C2.71707 11.8918 2.55361 12.5198 2.58735 13.1526C2.62108 13.7854 2.85048 14.3941 3.24626 14.9012C3.64204 15.4082 4.18624 15.7905 4.80938 15.9993L4.82414 16.2444C4.85956 16.7048 4.92154 17.256 4.9909 17.885L5.26392 20.3175L5.39231 21.4934C5.55759 23.0277 5.71698 24.4941 5.9531 25.7309C6.10068 26.5129 6.28957 27.2496 6.54931 27.8885C6.80757 28.5232 7.1647 29.1282 7.69155 29.5815C8.62128 30.3806 9.74287 30.7291 11.0799 30.8934C12.3712 31.0521 13.999 31.0521 16.0267 31.0521H19.3914C21.4191 31.0521 23.0469 31.0521 24.3382 30.8934C25.6767 30.7291 26.7968 30.3806 27.7266 29.5815C28.2534 29.1282 28.6105 28.5232 28.8688 27.8885C29.1285 27.2496 29.3174 26.5129 29.4665 25.7309C29.7026 24.4941 29.8605 23.0277 30.0258 21.4948L30.1542 20.3189L30.4272 17.8864C30.4966 17.256 30.56 16.7048 30.5925 16.2444L30.6087 15.9993C31.2319 15.7905 31.7761 15.4082 32.1718 14.9012C32.5676 14.3941 32.797 13.7854 32.8308 13.1526C32.8645 12.5198 32.701 11.8918 32.3612 11.3486C32.0215 10.8054 31.5208 10.3717 30.9231 10.103C30.3254 9.83423 29.6578 9.74256 29.0056 9.83969C28.3534 9.93681 27.7462 10.2183 27.2614 10.6483C26.7766 11.0782 26.4363 11.6371 26.2839 12.2536C26.1315 12.8701 26.1739 13.5162 26.4057 14.1094C26.0161 14.4451 25.5882 14.8546 25.1174 15.3051L25.0008 15.417C24.6201 15.7825 24.3928 15.9979 24.2142 16.1353C24.1766 16.1649 24.1371 16.1923 24.0962 16.2175C24.0645 16.1828 24.0349 16.1464 24.0076 16.1084C23.8103 15.8175 23.6266 15.5183 23.4572 15.2116L20.8052 10.6455L20.5101 10.1411C21.0968 9.60386 21.5025 8.9102 21.6748 8.14956C21.847 7.38892 21.778 6.59617 21.4766 5.87354C21.1752 5.15091 20.6552 4.53152 19.9837 4.09524C19.3122 3.65895 18.5199 3.42578 17.7091 3.42578ZM15.8643 7.3218C15.8643 6.85213 16.0587 6.40169 16.4046 6.06957C16.7506 5.73746 17.2198 5.55088 17.7091 5.55088C18.1983 5.55088 18.6675 5.73746 19.0135 6.06957C19.3594 6.40169 19.5538 6.85213 19.5538 7.3218C19.5538 7.79148 19.3594 8.24192 19.0135 8.57403C18.6675 8.90614 18.1983 9.09272 17.7091 9.09272C17.2198 9.09272 16.7506 8.90614 16.4046 8.57403C16.0587 8.24192 15.8643 7.79148 15.8643 7.3218ZM16.5358 11.6995C16.6539 11.4941 16.7646 11.3057 16.8664 11.1328C17.422 11.2458 17.9961 11.2458 18.5517 11.1328C18.655 11.3057 18.7627 11.4941 18.8823 11.6995L21.549 16.2897C21.7777 16.6836 21.9888 17.0477 22.1954 17.3296C22.4153 17.6286 22.7134 17.9601 23.1723 18.1542C23.5678 18.3213 24.0047 18.3794 24.4326 18.3228C24.9285 18.2562 25.3107 18.0167 25.6074 17.7872C25.8848 17.5705 26.1932 17.2758 26.5282 16.957L26.5636 16.923C27.1171 16.3932 27.5229 16.0092 27.8328 15.7372C28.0099 15.8364 28.1958 15.9214 28.3921 15.9894L28.3847 16.0942C28.3552 16.5107 28.2962 17.025 28.2224 17.6753L27.9538 20.0908L27.8181 21.3234C27.7147 22.2726 27.6203 23.1581 27.5096 23.9684H7.90849C7.79315 23.0876 7.68984 22.2054 7.59858 21.322C7.55726 20.9225 7.51151 20.5116 7.46576 20.0894L7.19422 17.6753C7.12769 17.1143 7.0716 16.5523 7.02598 15.9894C7.22226 15.9214 7.40968 15.8364 7.58677 15.7372C7.89668 16.0092 8.30104 16.3932 8.85593 16.923L8.88987 16.957C9.22487 17.2758 9.53331 17.5705 9.81075 17.7872C10.1074 18.0167 10.4896 18.2562 10.9855 18.3228C11.4134 18.3794 11.8503 18.3213 12.2458 18.1527C12.7033 17.9601 13.0043 17.6286 13.2227 17.3296C13.4559 16.993 13.6716 16.6454 13.8691 16.2883L16.5358 11.6995ZM8.29071 26.0935C8.38664 26.4846 8.49289 26.8246 8.61095 27.1136C8.8028 27.5811 8.99613 27.8503 9.16732 27.9976C9.63513 28.3986 10.2579 28.6493 11.3618 28.7853C12.4952 28.9256 13.9813 28.927 16.1034 28.927H19.3147C21.4368 28.927 22.9229 28.9256 24.0563 28.7853C25.1602 28.6508 25.783 28.3986 26.2508 27.9976C26.422 27.8503 26.6168 27.5811 26.8072 27.115C26.9252 26.8246 27.0315 26.4846 27.1274 26.0935H8.29071ZM4.7961 12.9887C4.79611 12.7791 4.86071 12.5742 4.98175 12.3998C5.10279 12.2253 5.27488 12.0891 5.47635 12.0084C5.67782 11.9276 5.89968 11.9058 6.11402 11.9458C6.32835 11.9857 6.52558 12.0857 6.68088 12.233C6.83619 12.3803 6.94264 12.5685 6.98684 12.7737C7.03103 12.979 7.011 13.1922 6.92926 13.3866C6.84752 13.581 6.70772 13.7478 6.52746 13.8661C6.3472 13.9843 6.13453 14.0488 5.9162 14.0513H5.90292C5.60937 14.0513 5.32785 13.9393 5.12028 13.7401C4.91271 13.5408 4.7961 13.2706 4.7961 12.9887ZM28.4084 12.9887C28.4084 12.7786 28.4733 12.5732 28.5949 12.3984C28.7165 12.2237 28.8894 12.0875 29.0916 12.0071C29.2939 11.9267 29.5164 11.9056 29.7311 11.9466C29.9458 11.9876 30.143 12.0888 30.2978 12.2374C30.4526 12.386 30.558 12.5753 30.6007 12.7815C30.6434 12.9876 30.6215 13.2012 30.5378 13.3954C30.454 13.5895 30.3121 13.7555 30.1301 13.8722C29.9481 13.989 29.7341 14.0513 29.5152 14.0513H29.5019C29.2103 14.049 28.9315 13.936 28.7265 13.7368C28.5216 13.5377 28.4072 13.2687 28.4084 12.9887Z" fill="#3F5EE6"/>
</svg>
