<svg width="62" height="45" viewBox="0 0 62 45" fill="none" xmlns="http://www.w3.org/2000/svg">
<path d="M16.1973 6.84326C8.19502 10.3189 1.54243 13.257 1.41105 13.3764C0.563049 14.1408 0.658598 15.8487 1.57826 16.4459C1.73352 16.5415 8.37418 19.4438 16.3406 22.8955C28.9411 28.3537 30.9118 29.1778 31.4134 29.1778C31.927 29.1778 33.3483 28.5926 41.9477 24.8662C47.4179 22.4894 51.9923 20.5187 52.0998 20.4948C52.2909 20.4351 52.3148 21.0681 52.3387 30.8022L52.3745 41.1812L52.6611 41.647C53.0672 42.2919 53.545 42.5547 54.3452 42.5547C55.1215 42.5547 55.659 42.268 56.0173 41.6947C56.2562 41.3126 56.2562 41.0617 56.2562 30.2408C56.2562 21.295 56.2323 19.1452 56.1009 19.0496C56.0173 18.978 50.3202 18.1897 43.4407 17.3059C35.2832 16.2548 30.8282 15.6338 30.5893 15.5143C28.8933 14.6305 29.5024 12.0985 31.4134 12.0985C31.9748 12.0985 58.4777 15.4785 59.051 15.6338C59.2301 15.6696 59.5645 15.9443 59.7915 16.2309C60.2812 16.8162 60.532 16.8759 61.1292 16.5176C62.2399 15.8368 62.3116 13.9378 61.2486 13.245C61.0933 13.1495 54.4527 10.2472 46.4863 6.79548C33.3125 1.08643 31.9509 0.513136 31.3776 0.52508C30.8282 0.52508 29.0844 1.25364 16.1973 6.84326Z" fill="white"/>
<path d="M12.4711 25.6428C12.2561 25.81 12.2441 25.9892 12.2441 29.9186C12.2561 34.5408 12.2919 34.8275 13.1399 36.5235C14.7404 39.7005 18.7892 42.3758 23.8772 43.618C26.7198 44.3226 27.5797 44.4062 31.4137 44.4062C35.2476 44.4062 36.1075 44.3226 38.9501 43.618C44.0978 42.3639 48.1586 39.6646 49.7352 36.4399C50.4996 34.8752 50.5354 34.6125 50.4996 29.8828L50.4637 25.6548L50.1651 25.5592C49.9024 25.4637 48.6244 25.9772 41.8046 28.9393C37.3735 30.8622 33.4321 32.5343 33.0499 32.6537C32.2616 32.9045 30.7926 32.9523 30.0401 32.7493C29.7774 32.6776 25.8479 31.0175 21.3093 29.0468C16.7588 27.088 12.9727 25.4756 12.8772 25.4756C12.7816 25.4756 12.6024 25.5473 12.4711 25.6428Z" fill="white"/>
</svg>
