<svg width="55" height="55" viewBox="0 0 55 55" fill="none" xmlns="http://www.w3.org/2000/svg">
<g clip-path="url(#clip0_264_1572)">
<path d="M35.9174 28.755C35.9174 27.4859 34.947 26.8887 33.118 26.8887H31.2891V30.8078H33.118C34.9096 30.8078 35.9174 30.1359 35.9174 28.755Z" fill="white"/>
<path d="M21.2858 30.8258C23.208 30.8258 24.4397 29.0715 24.4397 26.3281C24.4397 23.6033 23.208 21.9424 21.2858 21.9424C19.3635 21.9424 18.1318 23.6033 18.1318 26.3281C18.1318 29.0715 19.3636 30.8258 21.2858 30.8258Z" fill="white"/>
<path d="M35.2642 23.5473C35.2642 22.4275 34.4618 21.9609 32.8754 21.9609H31.2891V25.3389H32.8381C34.5363 25.3389 35.2642 24.6857 35.2642 23.5473Z" fill="white"/>
<path d="M2.65137 11.1709V50.9821C2.65137 52.7872 4.11474 54.2506 5.91988 54.2506H35.0838V41.0901C35.0838 38.9479 36.8203 37.2114 38.9625 37.2114H52.1229V11.1709C52.1229 9.36571 50.6596 7.90234 48.8544 7.90234H41.759C40.7687 9.38696 39.079 10.3671 37.1643 10.3671C36.2468 10.3671 35.3811 10.1417 34.6189 9.74388L29.2993 13.2771C28.9294 13.5228 28.4896 13.0829 28.7353 12.7131L31.9305 7.9024H5.91988C4.11468 7.90234 2.65137 9.36571 2.65137 11.1709ZM43.812 27.4671L42.1323 26.7393C40.9379 26.2354 39.6688 25.2835 39.6688 23.492C39.6688 21.5511 41.3858 20.0581 43.7745 20.0581C45.1929 20.0581 46.574 20.6553 47.5257 21.6071L46.4246 22.9882C45.6407 22.335 44.8196 21.9431 43.7746 21.9431C42.6175 21.9431 41.8524 22.4843 41.8524 23.3801C41.8524 24.3319 42.7855 24.6864 43.7933 25.097L45.4542 25.7875C46.8913 26.4035 47.9178 27.3179 47.9178 29.0909C47.9178 31.0691 46.2754 32.7115 43.532 32.7115C41.8897 32.7115 40.2847 32.0583 39.1275 30.9198L40.3965 29.4454C41.2738 30.2666 42.4496 30.8266 43.5692 30.8266C44.9503 30.8266 45.6968 30.2107 45.6968 29.259C45.6969 28.251 44.913 27.9337 43.812 27.4671ZM29.1242 20.2819H33.0249C35.5444 20.2819 37.3919 21.0471 37.3919 23.2866C37.3919 24.4437 36.7201 25.5635 35.3017 25.9367V26.0113C37.056 26.3099 38.0265 27.2617 38.0265 28.904C38.0265 31.3488 36.0296 32.4872 33.3421 32.4872H29.1243L29.1242 20.2819ZM21.2857 20.058C24.4771 20.058 26.6793 22.3908 26.6793 26.3286C26.6793 30.2851 24.4771 32.7113 21.2857 32.7113C18.1131 32.7113 15.9109 30.2852 15.9109 26.3286C15.9109 22.3908 18.1131 20.058 21.2857 20.058ZM7.71806 29.5386C8.20327 30.4344 8.87511 30.8264 9.62159 30.8264C10.76 30.8264 11.3386 30.2105 11.3386 28.4749V20.2819H13.5034V28.6614C13.5034 30.8824 12.421 32.7113 9.86422 32.7113C8.1659 32.7113 6.99016 32.0021 6.22495 30.6398L7.71806 29.5386Z" fill="white"/>
<path d="M38.9624 39.4561C38.0599 39.4561 37.3281 40.1878 37.3281 41.0903V53.1963V54.2508L52.1233 39.4561H51.2868H38.9624Z" fill="white"/>
<path d="M34.7656 7.90211C35.2071 8.24945 35.7256 8.50281 36.2916 8.63284C36.5723 8.69734 36.8644 8.73259 37.1646 8.73259C38.0704 8.73259 38.9029 8.42175 39.5636 7.90211C40.4681 7.19083 41.0494 6.08754 41.0494 4.84774C41.0495 2.70218 39.3101 0.962891 37.1646 0.962891C35.0191 0.962891 33.2798 2.70218 33.2798 4.84774C33.2798 5.14812 33.315 5.44005 33.3795 5.72081C33.5813 6.59906 34.0803 7.36319 34.7656 7.90211Z" fill="white"/>
</g>
<defs>
<clipPath id="clip0_264_1572">
<rect width="53.2875" height="53.2875" fill="white" transform="translate(0.743652 0.962891)"/>
</clipPath>
</defs>
</svg>
