<svg width="41" height="54" viewBox="0 0 41 54" fill="none" xmlns="http://www.w3.org/2000/svg">
<path d="M18.8417 1.12103C17.6765 1.52317 16.6453 2.44088 16.1504 3.53388L15.9545 3.97726H14.6346C13.6035 3.97726 13.1911 4.01851 12.7477 4.17318C10.8504 4.82279 9.57178 6.54479 9.57178 8.45238C9.57178 9.26698 9.73676 9.62787 10.2523 9.96815C10.541 10.1538 10.9226 10.1641 20.3987 10.1641C29.8748 10.1641 30.2563 10.1538 30.545 9.96815C31.0606 9.62787 31.2256 9.26698 31.2256 8.45238C31.2256 6.5551 29.947 4.82279 28.06 4.17318C27.6063 4.01851 27.2041 3.97726 26.1627 3.97726H24.8429L24.6469 3.53388C24.1417 2.42025 23.0487 1.45099 21.8732 1.09009C20.9452 0.801374 19.7387 0.811686 18.8417 1.12103Z" fill="white"/>
<path d="M3.41632 7.27673C2.03461 7.77167 0.97254 8.84405 0.487907 10.2464C0.302304 10.8032 0.291992 11.3806 0.291992 30.3741C0.291992 49.3676 0.302304 49.945 0.487907 50.5018C0.97254 51.9248 2.04492 52.9972 3.45757 53.4818C4.02469 53.6674 4.45777 53.6777 20.3991 53.6777C36.3404 53.6777 36.7735 53.6674 37.3406 53.4818C38.7532 52.9972 39.8256 51.9248 40.3102 50.5018C40.4959 49.945 40.5062 49.3676 40.5062 30.3741C40.5062 11.3806 40.4959 10.8032 40.3102 10.2464C39.8256 8.82343 38.7532 7.75105 37.3406 7.26642C36.8869 7.11175 36.4847 7.0705 35.4639 7.0705H34.1647V8.38004C34.1647 9.5246 34.1338 9.78238 33.9275 10.298C33.2882 11.8653 31.8756 12.9273 30.0917 13.1645C29.2153 13.2779 11.5829 13.2779 10.7064 13.1645C8.91226 12.9273 7.50992 11.8653 6.87062 10.2876C6.66439 9.78238 6.63346 9.51429 6.63346 8.38004V7.0705L5.29299 7.08081C4.26185 7.08081 3.82878 7.13237 3.41632 7.27673ZM31.989 18.1964C32.1437 18.2995 32.3705 18.5264 32.4736 18.6811C32.7211 19.0523 32.7314 19.8256 32.5046 20.1659C32.2571 20.5371 27.947 24.8782 27.4726 25.2288C26.9983 25.5793 26.2765 25.6412 25.8641 25.3628C25.4826 25.105 22.6985 22.3416 22.3479 21.8776C21.6158 20.8877 22.2757 19.5472 23.4925 19.5472C24.0802 19.5472 24.2349 19.6503 25.5341 20.9289L26.5859 21.9704L28.4213 20.1556C29.4215 19.1554 30.3598 18.2583 30.5042 18.1655C30.8445 17.9386 31.6178 17.949 31.989 18.1964ZM16.4602 19.7019C16.9345 19.9803 17.2026 20.4546 17.2026 20.9908C17.2026 21.527 16.9345 22.0013 16.4602 22.2797C16.1405 22.4756 15.9343 22.4859 12.6656 22.4859C9.39689 22.4859 9.19067 22.4756 8.87102 22.2797C7.69552 21.5682 7.96362 19.8772 9.30409 19.5369C9.47938 19.4957 11.088 19.4647 12.8718 19.475C15.9137 19.4957 16.1405 19.506 16.4602 19.7019ZM31.989 27.4766C32.1437 27.5797 32.3705 27.8066 32.4736 27.9613C32.7211 28.3325 32.7314 29.1058 32.5046 29.4461C32.2571 29.8173 27.947 34.1584 27.4726 34.509C26.9983 34.8595 26.2765 34.9214 25.8641 34.643C25.4826 34.3852 22.6985 31.6218 22.3479 31.1578C21.6158 30.1679 22.2757 28.8274 23.4925 28.8274C24.0802 28.8274 24.2349 28.9305 25.5341 30.2091L26.5859 31.2506L28.4213 29.4358C29.4215 28.4356 30.3598 27.5385 30.5042 27.4457C30.8445 27.2189 31.6178 27.2292 31.989 27.4766ZM16.4602 30.5288C16.9345 30.8072 17.2026 31.2815 17.2026 31.8177C17.2026 32.3539 16.9345 32.8282 16.4602 33.1066C16.1405 33.3025 15.9343 33.3128 12.6656 33.3128C9.39689 33.3128 9.19067 33.3025 8.87102 33.1066C7.69552 32.3951 7.96362 30.7041 9.30409 30.3638C9.47938 30.3226 11.088 30.2916 12.8718 30.3019C15.9137 30.3226 16.1405 30.3329 16.4602 30.5288ZM24.2143 38.2726C24.3586 38.3654 24.9464 38.9119 25.5341 39.4893L26.5859 40.5308L27.6479 39.4893C28.9369 38.2107 29.0915 38.1076 29.6793 38.1076C30.5145 38.1076 31.1229 38.716 31.1229 39.5512C31.1229 40.139 31.0197 40.2936 29.7411 41.5825L28.6997 42.6446L29.7411 43.6964C31.0197 44.9956 31.1229 45.1503 31.1229 45.738C31.1229 46.5732 30.5145 47.1816 29.6793 47.1816C29.0915 47.1816 28.9369 47.0785 27.6479 45.7999L26.5859 44.7584L25.5341 45.7999C24.2349 47.0785 24.0802 47.1816 23.4925 47.1816C22.6573 47.1816 22.0489 46.5732 22.0489 45.738C22.0489 45.1503 22.152 44.9956 23.4306 43.6964L24.4721 42.6446L23.4306 41.5825C22.152 40.2936 22.0489 40.139 22.0489 39.5512C22.0489 38.716 22.6573 38.1076 23.4925 38.1076C23.7606 38.1076 24.0699 38.1798 24.2143 38.2726ZM16.4602 41.3557C16.9345 41.6341 17.2026 42.1084 17.2026 42.6446C17.2026 43.1808 16.9345 43.6551 16.4602 43.9335C16.1405 44.1294 15.9343 44.1398 12.6656 44.1398C9.39689 44.1398 9.19067 44.1294 8.87102 43.9335C7.69552 43.222 7.96362 41.531 9.30409 41.1907C9.47938 41.1495 11.088 41.1185 12.8718 41.1288C15.9137 41.1495 16.1405 41.1598 16.4602 41.3557Z" fill="white"/>
</svg>
