<svg width="57" height="57" viewBox="0 0 57 57" fill="none" xmlns="http://www.w3.org/2000/svg">
<path d="M25.4937 0.74607C18.8256 1.82826 13.2616 6.51777 11.2065 12.8142C10.5069 14.9567 10.3867 15.7984 10.3976 18.564C10.3976 20.7502 10.4304 21.2203 10.6381 22.1932C11.2284 24.926 12.3762 27.473 13.9284 29.4952C14.2017 29.856 14.9341 30.6867 15.5681 31.3535C16.1912 32.0094 16.9892 32.9167 17.3171 33.3758C18.5851 35.092 19.5033 37.2673 19.8859 39.5192L19.9625 39.9346H28.3686H36.7747L36.8512 39.5192C37.2338 37.2673 38.152 35.092 39.4201 33.3758C39.748 32.9167 40.546 32.0094 41.1691 31.3535C41.8031 30.6867 42.5901 29.7794 42.929 29.3313C44.6671 27.0029 45.8148 24.1936 46.2521 21.1984C46.4926 19.5478 46.4161 16.3996 46.0881 14.8802C45.312 11.2838 43.7379 8.38701 41.1691 5.8291C38.6002 3.26026 35.6816 1.67523 32.118 0.899108C30.7079 0.593033 26.9585 0.505583 25.4937 0.74607ZM30.369 10.934C31.3528 11.404 32.3038 12.3441 32.7739 13.3389C33.1018 14.0385 33.1237 14.1478 33.1237 15.3393C33.1237 16.5308 33.1018 16.6292 32.7629 17.3616C32.4787 17.9628 32.1836 18.3344 31.3856 19.1106C30.1394 20.3239 30.0083 20.63 30.0083 22.3571V23.5377H28.3467H26.6961L26.7726 22.1932C26.8054 21.4608 26.9038 20.6081 26.9912 20.2911C27.3301 19.0122 28.0734 17.8425 29.0791 16.979C29.3852 16.7166 29.7131 16.3777 29.8115 16.2247C30.0848 15.8312 30.0739 14.8364 29.8006 14.4211C29.4617 13.9182 29.0463 13.6996 28.3686 13.6996C27.6908 13.6996 27.2755 13.9182 26.9366 14.4211C26.7726 14.6834 26.7289 14.9458 26.7289 15.853V16.979H25.0892H23.4495V16.2903C23.4605 14.268 23.8977 13.0109 24.958 11.9615C26.0402 10.8684 26.9366 10.5186 28.5326 10.5623C29.5054 10.5842 29.7131 10.6279 30.369 10.934ZM30.0083 28.4568V30.0965H28.3686H26.7289V28.4568V26.8171H28.3686H30.0083V28.4568Z" fill="white"/>
<path d="M3.17168 6.59435L1.96924 7.79679L4.46156 10.2891L6.94295 12.7705L8.16725 11.5353L9.40248 10.311L6.94295 7.85145C5.58748 6.49597 4.46156 5.39192 4.42877 5.39192C4.39597 5.39192 3.82755 5.93848 3.17168 6.59435Z" fill="white"/>
<path d="M49.7935 7.85145L47.334 10.311L48.5692 11.5353L49.7935 12.7705L52.2749 10.2891L54.7672 7.79679L53.5648 6.59435C52.9089 5.93848 52.3405 5.39192 52.3077 5.39192C52.2749 5.39192 51.149 6.49597 49.7935 7.85145Z" fill="white"/>
<path d="M0.384277 18.6181V20.2578H3.77296H7.16165V18.6181V16.9784H3.77296H0.384277V18.6181Z" fill="white"/>
<path d="M49.5752 18.6181V20.2578H52.9639H56.3526V18.6181V16.9784H52.9639H49.5752V18.6181Z" fill="white"/>
<path d="M4.50538 26.9047C3.20456 28.2055 2.1333 29.3315 2.1333 29.3861C2.1333 29.5282 4.34141 31.7363 4.48352 31.7363C4.54911 31.7363 5.67502 30.6541 6.9977 29.3315L9.40258 26.9266L8.20014 25.7241C7.54427 25.0683 6.97584 24.5217 6.94305 24.5217C6.91025 24.5217 5.81713 25.593 4.50538 26.9047Z" fill="white"/>
<path d="M48.5364 25.7241L47.334 26.9266L49.7389 29.3315C51.0615 30.6541 52.1875 31.7363 52.253 31.7363C52.3951 31.7363 54.6033 29.5282 54.6033 29.3861C54.6033 29.2768 49.9028 24.5217 49.7935 24.5217C49.7607 24.5217 49.1923 25.0683 48.5364 25.7241Z" fill="white"/>
<path d="M20.1915 46.6789C20.2352 50.1332 20.2352 50.166 20.5304 50.9639C21.0332 52.3413 21.547 53.1393 22.6182 54.1996C23.4053 54.9866 23.8097 55.2818 24.5421 55.6534C25.8211 56.2875 26.9251 56.5498 28.3681 56.5498C29.811 56.5498 30.9041 56.2984 32.194 55.6534C32.9482 55.2818 33.3199 54.9976 34.1616 54.1449C35.0142 53.3032 35.2985 52.9316 35.6701 52.1773C36.479 50.5486 36.5665 49.9911 36.5665 46.3619V43.2137H28.3571H20.1587L20.1915 46.6789Z" fill="white"/>
</svg>
